<?xml version='1.0' encoding='utf-8'?>
<svg xmlns="http://www.w3.org/2000/svg" version="1.1" width="89.07939" height="106.16565" viewBox="0,0,89.07939,106.16565"><g transform="translate(-190.7277,-123.28939)"><g data-paper-data="{&quot;isPaintingLayer&quot;:true}" fill-rule="nonzero" stroke-width="2" stroke-linejoin="miter" stroke-miterlimit="10" stroke-dasharray="" stroke-dashoffset="0" style="mix-blend-mode: normal"><path d="M200.04071,225.09294c-5.90811,-19.14189 -10.37735,-94.30302 -7.32639,-97.76072c4.58857,-5.2003 78.09404,-3.05137 81.93918,1.33207c4.50103,5.13114 5.9256,92.23816 1.33207,95.76262c-2.85744,2.19242 -73.84278,7.47663 -75.94486,0.66604z" data-paper-data="{&quot;index&quot;:null}" fill="#ffffff" stroke="#cdcdcd" stroke-linecap="butt"/><path d="M197.49067,139.88975l-1.33207,-8.99148h8.32545l0.66604,8.65846z" data-paper-data="{&quot;index&quot;:null}" fill="#ffffff" stroke="#000000" stroke-linecap="butt"/><path d="M200.15954,185.85095l-1.33207,-8.99148h8.32545l0.66603,8.65846z" data-paper-data="{&quot;index&quot;:null}" fill="#ffffff" stroke="#000000" stroke-linecap="butt"/><path d="M202.16238,201.84054l-1.33207,-8.99148h8.32545l0.66603,8.65846z" data-paper-data="{&quot;index&quot;:null}" fill="#ffffff" stroke="#000000" stroke-linecap="butt"/><path d="M204.49824,219.1622l-1.33207,-8.99148h8.32545l0.66603,8.65846z" data-paper-data="{&quot;index&quot;:null}" fill="#ffffff" stroke="#000000" stroke-linecap="butt"/><path d="M198.17563,154.89448l-1.33207,-8.99148h8.32545l0.66603,8.65846z" data-paper-data="{&quot;index&quot;:null}" fill="#ffffff" stroke="#000000" stroke-linecap="butt"/><path d="M198.8464,170.55105l-1.33207,-8.99148h8.32545l0.66603,8.65846z" data-paper-data="{&quot;index&quot;:null}" fill="#ffffff" stroke="#000000" stroke-linecap="butt"/><path d="M267.75744,135.56051c0,0 -4.05855,5.64557 -7.86298,-0.08807c-2.22174,-3.34837 -1.4505,1.70574 -10.11681,1.93009c-5.59635,0.14487 -4.2035,-1.40345 -9.35685,-3.02663c-1.62053,-0.51043 -5.09366,2.57569 -7.77289,3.0606c-2.42942,0.4397 -5.36053,-3.45729 -7.6439,-2.51811c-3.34527,1.37595 -5.84363,3.63929 -6.86624,3.63929c-3.67284,0 -8.32545,-2.99716 -8.32545,-2.99716" data-paper-data="{&quot;index&quot;:null}" fill="none" stroke="#000000" stroke-linecap="round"/><path d="M213.35857,181.2109c0,0 4.6526,-2.99716 8.32545,-2.99716c1.02261,0 3.52097,2.26334 6.86624,3.63929c2.28337,0.93918 5.21448,-2.95781 7.6439,-2.51811c2.67923,0.48492 6.15236,3.57102 7.77289,3.0606c5.15335,-1.62318 3.7605,-3.17149 9.35684,-3.02662c8.66632,0.22434 7.89507,5.27846 10.11681,1.93008c3.80443,-5.73364 7.86298,-0.08808 7.86298,-0.08808" data-paper-data="{&quot;index&quot;:null}" fill="none" stroke="#000000" stroke-linecap="round"/><path d="M216.14914,197.60198c0,0 4.05855,-5.64557 7.86298,0.08808c2.22174,3.34838 1.4505,-1.70574 10.11681,-1.93008c5.59635,-0.14487 4.2035,1.40345 9.35684,3.02662c1.62053,0.51042 5.09366,-2.57568 7.77289,-3.0606c2.42942,-0.4397 5.36053,3.45729 7.6439,2.51811c3.34527,-1.37595 5.84363,-3.63929 6.86624,-3.63929c3.67284,0 8.32544,2.99716 8.32544,2.99716" data-paper-data="{&quot;index&quot;:null}" fill="none" stroke="#000000" stroke-linecap="round"/><path d="M268.99588,147.74558c0,0 -4.4552,3.28342 -8.12079,3.51407c-1.02059,0.06422 -3.65616,-2.03776 -7.08123,-3.20091c-2.33784,-0.79393 -5.01845,3.27944 -7.47068,2.99317c-2.70439,-0.31571 -6.36447,-3.17761 -7.94975,-2.56643c-5.04124,1.9436 -3.55391,3.40139 -9.14831,3.60825c-8.6633,0.32034 -8.21097,-4.77224 -10.21805,-1.29095c-3.43685,5.96124 -7.84193,0.58169 -7.84193,0.58169" data-paper-data="{&quot;index&quot;:null}" fill="none" stroke="#000000" stroke-linecap="round"/><path d="M212.81896,167.67855c0,0 4.05855,-5.64557 7.86298,0.08808c1.0287,1.55035 2.60126,-2.07673 4.78099,-2.0345c1.61991,0.03139 3.57517,4.02754 5.89176,3.40726c1.29857,-0.3477 1.76867,-3.92562 3.44028,-3.96889c5.59635,-0.14487 0.20728,2.06949 5.36063,3.69266c1.62053,0.51042 3.42857,-1.57663 6.1078,-2.06155c2.42942,-0.4397 7.02562,2.45823 9.30899,1.51906c3.34527,-1.37595 5.84363,-3.63929 6.86624,-3.63929c3.67284,0 8.32544,2.99716 8.32544,2.99716" data-paper-data="{&quot;index&quot;:null}" fill="none" stroke="#000000" stroke-linecap="round"/><path d="M273.76596,213.83391c0,0 -4.05855,5.64557 -7.86298,-0.08808c-1.0287,-1.55035 -2.60126,2.07673 -4.78099,2.0345c-1.61991,-0.03139 -3.57517,-4.02754 -5.89176,-3.40726c-1.29856,0.34769 -1.76868,3.92561 -3.44028,3.96889c-5.59635,0.14487 -0.20728,-2.06948 -5.36063,-3.69266c-1.62053,-0.51042 -3.42857,1.57663 -6.1078,2.06155c-2.42942,0.4397 -7.02563,-2.45824 -9.30899,-1.51906c-3.34527,1.37595 -5.84363,3.63929 -6.86624,3.63929c-3.67284,0 -8.32545,-2.99716 -8.32545,-2.99716" data-paper-data="{&quot;index&quot;:null}" fill="none" stroke="#000000" stroke-linecap="round"/></g></g></svg>